<?xml version="1.0" encoding="iso-8859-1"?>
<!-- Uploaded to: SVG Repo, www.svgrepo.com, Generator: SVG Repo Mixer Tools -->
<svg fill="#000000" height="800px" width="800px" version="1.1" id="Layer_1" xmlns="http://www.w3.org/2000/svg" xmlns:xlink="http://www.w3.org/1999/xlink" 
	 viewBox="0 0 512 512" xml:space="preserve">
<g>
	<g>
		<path d="M490.667,0H21.333C9.536,0,0,9.557,0,21.333v469.333C0,502.443,9.536,512,21.333,512h469.333
			c11.797,0,21.333-9.557,21.333-21.333V21.333C512,9.557,502.464,0,490.667,0z M185.749,326.251c8.341,8.341,8.341,21.824,0,30.165
			c-4.16,4.16-9.621,6.251-15.083,6.251c-5.461,0-10.923-2.091-15.083-6.251l-85.333-85.333c-8.341-8.341-8.341-21.824,0-30.165
			l85.333-85.333c8.341-8.341,21.824-8.341,30.165,0c8.341,8.341,8.341,21.824,0,30.165L115.499,256L185.749,326.251z
			 M298.368,131.52l-42.667,256c-1.728,10.411-10.773,17.813-21.013,17.813c-1.173,0-2.325-0.085-3.52-0.299
			c-11.627-1.941-19.477-12.928-17.536-24.555l42.667-256c1.899-11.605,12.885-19.499,24.533-17.515
			C292.459,108.885,300.309,119.893,298.368,131.52z M441.749,271.083l-85.333,85.333c-4.16,4.16-9.621,6.251-15.083,6.251
			c-5.461,0-10.923-2.091-15.083-6.251c-8.341-8.341-8.341-21.824,0-30.165L396.501,256l-70.251-70.251
			c-8.341-8.341-8.341-21.824,0-30.165c8.341-8.341,21.824-8.341,30.165,0l85.333,85.333
			C450.091,249.259,450.091,262.741,441.749,271.083z"/>
	</g>
</g>
</svg>